HIERARCHY
ROOT Hips
{
	OFFSET -0.001795 -0.223333 0.028219
	CHANNELS 6 Xposition Yposition Zposition Zrotation Yrotation Xrotation 
	JOINT LeftUpLeg
	{
		OFFSET 0.069520 -0.091406 -0.006815
		CHANNELS 3 Zrotation Yrotation Xrotation
		JOINT LeftLeg
		{
			OFFSET 0.034277 -0.375199 -0.004496
			CHANNELS 3 Zrotation Yrotation Xrotation
			JOINT LeftFoot
			{
				OFFSET -0.013596 -0.397961 -0.043693
				CHANNELS 3 Zrotation Yrotation Xrotation
				JOINT LeftToe
				{
					OFFSET 0.026358 -0.055791 0.119288
					CHANNELS 3 Zrotation Yrotation Xrotation
					End Site
					{
						OFFSET 0.000000 0.000000 0.000000
					}
				}
			}
		}
	}
	JOINT RightUpLeg
	{
		OFFSET -0.067670 -0.090522 -0.004320
		CHANNELS 3 Zrotation Yrotation Xrotation
		JOINT RightLeg
		{
			OFFSET -0.038290 -0.382569 -0.008850
			CHANNELS 3 Zrotation Yrotation Xrotation
			JOINT RightFoot
			{
				OFFSET 0.015774 -0.398415 -0.042312
				CHANNELS 3 Zrotation Yrotation Xrotation
				JOINT RightToe
				{
					OFFSET -0.025372 -0.048144 0.123348
					CHANNELS 3 Zrotation Yrotation Xrotation
					End Site
					{
						OFFSET 0.000000 0.000000 0.000000
					}
				}
			}
		}
	}
	JOINT Spine
	{
		OFFSET -0.002533 0.108963 -0.026696
		CHANNELS 3 Zrotation Yrotation Xrotation
		JOINT Spine1
		{
			OFFSET 0.005487 0.135180 0.001092
			CHANNELS 3 Zrotation Yrotation Xrotation
			JOINT Spine2
			{
				OFFSET 0.001457 0.052922 0.025425
				CHANNELS 3 Zrotation Yrotation Xrotation
				JOINT Neck
				{
					OFFSET -0.002778 0.213870 -0.042857
					CHANNELS 3 Zrotation Yrotation Xrotation
					JOINT Head
					{
						OFFSET 0.005152 0.064970 0.051349
						CHANNELS 3 Zrotation Yrotation Xrotation
						End Site
						{
							OFFSET 0.000000 0.000000 0.000000
						}
					}
				}
				JOINT LeftShoulder
				{
					OFFSET 0.078845 0.121749 -0.034090
					CHANNELS 3 Zrotation Yrotation Xrotation
					JOINT LeftArm
					{
						OFFSET 0.090977 0.030469 -0.008868
						CHANNELS 3 Zrotation Yrotation Xrotation
						JOINT LeftForeArm
						{
							OFFSET 0.259612 -0.012772 -0.027456
							CHANNELS 3 Zrotation Yrotation Xrotation
							JOINT LeftHand
							{
								OFFSET 0.249234 0.008986 -0.001171
								CHANNELS 3 Zrotation Yrotation Xrotation
								End Site
								{
									OFFSET 0.000000 0.000000 0.000000
								}
							}
						}
					}
				}
				JOINT RightShoulder
				{
					OFFSET -0.081759 0.118833 -0.038615
					CHANNELS 3 Zrotation Yrotation Xrotation
					JOINT RightArm
					{
						OFFSET -0.096012 0.032551 -0.009143
						CHANNELS 3 Zrotation Yrotation Xrotation
						JOINT RightForeArm
						{
							OFFSET -0.253742 -0.013329 -0.021401
							CHANNELS 3 Zrotation Yrotation Xrotation
							JOINT RightHand
							{
								OFFSET -0.255298 0.007772 -0.005559
								CHANNELS 3 Zrotation Yrotation Xrotation
								End Site
								{
									OFFSET 0.000000 0.000000 0.000000
								}
							}
						}
					}
				}
			}
		}
	}
}
MOTION
Frames: 16
Frame Time: 0.050000
0.000000 0.819751 0.000000 -0.471788 -2.062174 -0.355126 35.175549 -1.329731 6.064044 -9.117993 0.803483 -5.312882 8.874976 18.846186 22.781630 0.000000 0.000000 0.000000 -32.208660 0.493568 -3.063776 7.832883 -0.718637 -2.429790 -5.207004 -16.042287 22.685645 0.000000 0.000000 0.000000 -1.004027 -0.135901 4.517368 3.931205 -0.615384 -20.432834 -1.675806 1.103787 23.678869 0.122513 1.705484 -29.299004 0.000000 0.000000 0.000000 -31.378063 -5.318874 1.468612 -41.172076 -4.165204 -5.268045 -20.283173 -21.228284 4.723993 0.000000 0.000000 0.000000 24.630794 12.593012 6.019678 49.506124 6.916555 -4.034306 16.824102 24.709567 4.387028 0.000000 0.000000 0.000000 
-0.000607 0.818228 0.001614 0.550349 -2.569206 -1.026661 32.705051 -1.195219 6.776019 -6.348772 0.591087 -6.919167 11.115719 21.428238 28.655439 0.000000 0.000000 0.000000 -31.717136 1.048389 -0.238654 2.897039 -0.352585 -4.575974 -5.360595 -16.693172 26.741939 0.000000 0.000000 0.000000 -2.658752 -0.021293 2.147810 2.439793 -0.273418 -19.229201 -0.235844 0.066945 27.683738 -1.029357 2.218973 -33.503564 0.000000 0.000000 0.000000 -27.354276 -5.450762 2.485599 -46.086978 -8.229014 -4.916197 -18.436849 -18.907086 3.982705 0.000000 0.000000 0.000000 21.753408 13.123587 5.794933 53.478192 10.460109 -2.995126 12.829133 25.842076 3.779684 0.000000 0.000000 0.000000 
-0.001150 0.816237 0.002798 0.200538 -0.148216 -2.321785 34.094748 -1.250417 4.918805 -9.025433 0.786702 -4.614591 8.544079 18.695063 24.586628 0.000000 0.000000 0.000000 -31.639164 0.897704 1.668389 4.128833 -0.446437 -2.286780 -4.940282 -15.539805 23.240142 0.000000 0.000000 0.000000 -1.963663 -0.067245 2.909045 3.200966 -0.450902 -19.075964 -0.932000 -0.653295 28.318053 -0.847910 2.173761 -31.958730 0.000000 0.000000 0.000000 -27.456346 -6.044716 2.589655 -46.634536 -9.503078 -4.490758 -17.431391 -19.385599 3.903325 0.000000 0.000000 0.000000 21.237230 12.975056 5.980670 52.383926 10.537436 -3.092160 12.716009 24.366512 3.532971 0.000000 0.000000 0.000000 
-0.001486 0.817010 0.003183 -0.266699 1.029212 -2.363572 36.721543 -1.673407 5.059221 -8.408762 0.632294 -6.713799 7.360726 17.794190 32.007023 0.000000 0.000000 0.000000 -33.488697 0.852850 2.216262 3.946265 -0.440760 -2.245280 -3.575433 -14.227151 30.293872 0.000000 0.000000 0.000000 -2.393157 -0.064079 3.204124 4.012585 -0.611246 -19.889678 -1.174708 -1.767258 29.851923 -1.917349 2.713218 -34.109210 0.000000 0.000000 0.000000 -27.222134 -5.222544 2.282134 -46.137388 -10.497856 -4.301987 -17.990180 -17.694382 3.655310 0.000000 0.000000 0.000000 19.187945 14.209207 6.469632 52.632631 12.764092 -2.276750 12.495492 23.429108 3.324000 0.000000 0.000000 0.000000 
-0.001573 0.814223 0.003100 -0.647280 0.926870 -3.309532 36.693269 -1.565557 4.940977 -7.807253 0.662294 -5.117634 7.151419 17.568026 31.414088 0.000000 0.000000 0.000000 -33.075680 0.840626 2.496334 3.803480 -0.419296 -0.770519 -4.160841 -15.096574 31.095282 0.000000 0.000000 0.000000 -2.254832 -0.087250 3.775588 3.749223 -0.568211 -19.465287 -1.183306 -1.433088 30.750653 -1.043810 2.364650 -35.255347 0.000000 0.000000 0.000000 -25.334487 -5.511949 2.406421 -47.825746 -11.658944 -3.986108 -17.667695 -17.802141 3.636404 0.000000 0.000000 0.000000 18.261933 13.388477 6.060303 54.520992 14.406711 -1.650888 10.944465 22.622119 2.939262 0.000000 0.000000 0.000000 
-0.001628 0.811745 0.002830 -0.589194 0.815289 -2.914125 36.978475 -1.325116 3.839407 -7.331163 0.676672 -3.767056 7.025999 17.431856 31.806742 0.000000 0.000000 0.000000 -33.585640 0.712677 1.502934 3.556954 -0.385043 0.167155 -4.356234 -15.442073 32.260224 0.000000 0.000000 0.000000 -2.237629 -0.074535 3.301626 3.383694 -0.500778 -18.786614 -0.993527 -1.338930 31.043830 -0.840918 2.310824 -36.355354 0.000000 0.000000 0.000000 -25.109264 -5.265040 2.258215 -48.144465 -12.289600 -3.777970 -17.718294 -17.464220 3.576967 0.000000 0.000000 0.000000 18.095403 12.740394 5.731160 55.090021 14.981493 -1.416750 10.362099 22.976486 2.900043 0.000000 0.000000 0.000000 
-0.001668 0.811115 0.002600 -0.708231 1.044650 -2.593374 36.761867 -1.256022 3.289897 -6.472387 0.600726 -4.148751 6.689715 17.087713 31.766392 0.000000 0.000000 0.000000 -33.286315 0.550856 0.796082 3.409834 -0.362206 1.010204 -4.944597 -16.122514 32.399086 0.000000 0.000000 0.000000 -2.365918 -0.074711 3.588125 3.810170 -0.628550 -18.634005 -1.094253 -1.432485 30.783306 -0.737893 2.282599 -36.671019 0.000000 0.000000 0.000000 -25.231757 -4.679368 1.855602 -48.598479 -12.021374 -3.861605 -18.226404 -17.855511 3.753910 0.000000 0.000000 0.000000 17.784352 12.447262 5.567534 55.076635 14.285335 -1.718270 10.644815 23.448201 3.025795 0.000000 0.000000 0.000000 
-0.001779 0.811206 0.002587 -0.878371 1.099363 -2.667569 36.561131 -1.308516 3.514077 -6.156437 0.552093 -5.362045 6.845057 17.268337 31.869482 0.000000 0.000000 0.000000 -32.543385 0.444802 0.387553 3.413658 -0.356698 1.726383 -5.657177 -16.911952 31.210950 0.000000 0.000000 0.000000 -2.214272 -0.098526 4.425797 3.933138 -0.634498 -19.126388 -1.205894 -1.630698 31.008664 -1.099330 2.430252 -36.799190 0.000000 0.000000 0.000000 -24.895078 -4.102444 1.565544 -48.886617 -11.965962 -3.926991 -18.173814 -17.858572 3.757188 0.000000 0.000000 0.000000 16.791269 11.934686 5.205644 55.152887 13.636621 -2.040456 11.884554 23.146643 3.213911 0.000000 0.000000 0.000000 
-0.001899 0.810545 0.002633 -1.143499 1.484646 -2.765567 36.447072 -1.331616 3.305903 -5.417288 0.497541 -5.696570 6.567162 17.044727 32.246639 0.000000 0.000000 0.000000 -32.173686 0.329726 0.192494 3.143626 -0.316742 2.547265 -5.653220 -16.862587 31.433005 0.000000 0.000000 0.000000 -1.833987 -0.120870 4.678567 3.853550 -0.601403 -19.164219 -1.488065 -1.748095 31.314352 -0.499884 2.152573 -36.508232 0.000000 0.000000 0.000000 -23.946695 -4.113851 1.550941 -49.136643 -11.856305 -3.985449 -18.492968 -18.133508 3.875272 0.000000 0.000000 0.000000 16.574018 11.322489 4.929203 55.317460 13.412671 -2.184601 11.850696 22.649980 3.140554 0.000000 0.000000 0.000000 
-0.001944 0.810524 0.002699 -1.344573 1.451916 -2.570877 36.637874 -1.252968 2.884155 -5.182308 0.486834 -5.516273 6.660362 17.158570 32.624371 0.000000 0.000000 0.000000 -31.938997 0.301050 -0.045177 3.085949 -0.309003 2.539240 -5.179604 -16.235642 30.966478 0.000000 0.000000 0.000000 -1.401365 -0.132378 4.515990 3.708773 -0.551386 -19.287992 -1.675598 -1.865896 31.707305 -0.280807 2.023175 -36.527350 0.000000 0.000000 0.000000 -24.041257 -3.755561 1.389655 -48.279189 -11.762549 -4.037324 -19.326882 -18.659385 4.143697 0.000000 0.000000 0.000000 16.636320 10.792762 4.643067 54.567691 12.788851 -2.518363 13.118010 22.504802 3.350396 0.000000 0.000000 0.000000 
-0.001983 0.810476 0.002750 -1.486220 1.264162 -2.293783 36.228679 -1.116756 2.451551 -4.846097 0.474090 -5.046194 7.159895 17.616578 31.939599 0.000000 0.000000 0.000000 -31.352912 0.318272 -0.196067 2.904377 -0.283164 2.564055 -5.354361 -16.405503 30.035045 0.000000 0.000000 0.000000 -1.131553 -0.130677 4.172537 3.621365 -0.535313 -19.151489 -1.626959 -1.748018 31.983123 -0.150963 1.963942 -36.615026 0.000000 0.000000 0.000000 -23.663940 -3.565251 1.297575 -48.416087 -12.070942 -3.950611 -19.885608 -19.215352 4.391025 0.000000 0.000000 0.000000 16.277935 10.314111 4.395446 54.526177 12.600876 -2.637848 13.545893 22.719873 3.478098 0.000000 0.000000 0.000000 
-0.002020 0.809843 0.002874 -1.632439 1.235002 -2.235359 36.152456 -1.082381 2.311535 -4.757152 0.470935 -4.786598 7.413062 17.852111 31.384477 0.000000 0.000000 0.000000 -31.042052 0.351570 -0.026919 3.010059 -0.301442 2.219655 -5.434783 -16.456144 29.228904 0.000000 0.000000 0.000000 -0.786722 -0.132899 3.873850 3.387030 -0.489059 -18.758800 -1.653548 -1.757356 32.166663 0.096453 1.813444 -36.135926 0.000000 0.000000 0.000000 -23.359344 -3.589926 1.332641 -48.476590 -12.407695 -3.842161 -19.964506 -20.043368 4.613301 0.000000 0.000000 0.000000 16.342136 9.845278 4.162243 54.176854 12.267768 -2.811957 14.140466 22.955438 3.637580 0.000000 0.000000 0.000000 
-0.001988 0.808680 0.003090 -1.704166 1.347421 -2.359204 36.226729 -1.104536 2.325186 -4.831199 0.472865 -4.923529 7.452282 17.897472 31.149028 0.000000 0.000000 0.000000 -31.050946 0.424444 0.557785 3.074854 -0.317855 1.638748 -5.508807 -16.542542 29.238233 0.000000 0.000000 0.000000 -0.413003 -0.149667 3.969786 3.124160 -0.410488 -18.728425 -1.687717 -1.647789 32.165711 0.440839 1.672553 -36.045125 0.000000 0.000000 0.000000 -22.948891 -3.817848 1.414991 -48.570128 -12.383638 -3.837832 -20.132990 -20.568234 4.768766 0.000000 0.000000 0.000000 16.677311 9.405874 3.995610 53.893678 12.100697 -2.894812 13.977464 22.436812 3.516273 0.000000 0.000000 0.000000 
-0.001895 0.807493 0.003296 -1.588789 1.504862 -2.535212 36.202688 -1.118244 2.314373 -5.263927 0.494659 -5.187825 7.528490 17.980418 30.758219 0.000000 0.000000 0.000000 -31.280751 0.491437 1.142556 3.306019 -0.355302 0.937371 -5.396509 -16.362724 28.856435 0.000000 0.000000 0.000000 0.031534 -0.183498 4.410193 2.728530 -0.274767 -19.016707 -1.759165 -1.653611 31.957515 0.336233 1.742165 -36.085811 0.000000 0.000000 0.000000 -22.778099 -4.039120 1.509852 -48.274455 -12.205141 -3.871518 -20.694100 -21.262404 5.046091 0.000000 0.000000 0.000000 16.956028 8.901754 3.763795 53.822405 11.767564 -3.032682 14.005789 22.249540 3.492088 0.000000 0.000000 0.000000 
-0.001857 0.807374 0.003509 -1.596936 1.708704 -2.536083 36.186979 -1.128042 2.183898 -5.465628 0.507450 -4.965678 7.499585 17.928237 29.922006 0.000000 0.000000 0.000000 -31.258299 0.521648 1.511965 3.435529 -0.375482 0.592835 -5.395964 -16.300556 28.324230 0.000000 0.000000 0.000000 0.286362 -0.203021 4.626600 2.572203 -0.210626 -19.292661 -1.769283 -1.665686 31.848832 0.376448 1.735428 -35.974072 0.000000 0.000000 0.000000 -22.900487 -4.187364 1.551284 -47.572207 -12.068526 -3.881515 -21.664988 -21.918747 5.401011 0.000000 0.000000 0.000000 17.304042 8.641264 3.669287 53.433667 11.418869 -3.183850 14.287432 22.202995 3.538537 0.000000 0.000000 0.000000 
-0.001784 0.807892 0.003665 -1.584271 2.000759 -2.641722 35.698236 -1.102337 1.951115 -5.309259 0.500928 -4.505495 7.705645 18.140587 28.948520 0.000000 0.000000 0.000000 -30.821106 0.531245 1.930851 2.971927 -0.325881 0.412856 -5.190499 -15.944467 27.693303 0.000000 0.000000 0.000000 0.464489 -0.200230 4.414850 2.506767 -0.187171 -19.234791 -1.772051 -1.716961 31.917751 0.529708 1.671074 -35.820945 0.000000 0.000000 0.000000 -22.959176 -4.671299 1.798359 -46.973832 -12.213486 -3.806566 -22.285311 -22.434250 5.656448 0.000000 0.000000 0.000000 17.916916 8.683504 3.751245 52.878708 11.499065 -3.161351 14.082658 22.182845 3.498549 0.000000 0.000000 0.000000 
